<?xml version="1.0" encoding="utf-8"?>
<!-- Generator: Adobe Illustrator 24.2.1, SVG Export Plug-In . SVG Version: 6.00 Build 0)  -->
<svg version="1.1" id="Ebene_1" xmlns="http://www.w3.org/2000/svg" xmlns:xlink="http://www.w3.org/1999/xlink" x="0px" y="0px"
	 viewBox="0 0 667.1 383.3" style="enable-background:new 0 0 667.1 383.3;" xml:space="preserve">
<style type="text/css">
	.st0{display:none;}
	.st1{display:inline;fill-rule:evenodd;clip-rule:evenodd;fill:#00497B;}
	.st2{fill:#FFFFFF;}
	.st3{fill-rule:evenodd;clip-rule:evenodd;fill:#FFFFFF;}
</style>
<g class="st0">
	<path class="st1" d="M81.9,74.4l-4.6-1c-4.7-1-8.1-1.8-8.1-5.3c0-4.7,6.4-5.4,8.3-5.4c7,0,10.2,4.3,11.5,6.6l6.8-5.1
		c-6.2-8.3-13.9-9-17.9-9c-11.2,0-17.5,6-17.5,13.8c0,8.7,7,11,12.7,12.3l5.6,1.3c5.6,1.3,8.5,2.1,8.5,5.7c0,3.8-3.7,5.8-8.5,5.8
		c-8.2,0-11.8-3.8-13.7-6.7l-7,4.8c4,6.8,12,9.5,19.4,9.5c7.9,0,18.8-3.3,18.8-14.3C96.3,78.6,88.9,75.9,81.9,74.4z"/>
	<path class="st1" d="M142.2,88.3l-7.8-3.3c-1.3,4.5-5,8.9-10.7,8.9c-9.8,0-12.3-9.7-12.3-15.7c0-9.8,5.1-15.4,12.3-15.4
		c4.9,0,9,3.4,9.5,8.2l8.2-2.1c-1.9-6.3-6.6-13.7-18-13.7c-15.4,0-21,13-21,22.8c0,16.6,10.2,23.7,20.7,23.7
		C135.8,101.8,140.8,92.1,142.2,88.3z"/>
	<polygon class="st1" points="158.1,56.4 149.8,56.4 149.8,100.7 158.1,100.7 158.1,80.6 177.1,80.6 177.1,100.7 185.5,100.7 
		185.5,56.4 177.1,56.4 177.1,73.1 158.1,73.1 	"/>
	<polygon class="st1" points="213,100.7 219.4,69.9 225.6,100.7 235.3,100.7 245,56.4 236.4,56.4 230.2,90.2 223.2,56.4 215.5,56.4 
		208.6,90.2 202.6,56.4 194.1,56.4 203.3,100.7 	"/>
	<polygon class="st1" points="286.4,93.2 261.5,93.2 261.5,81.4 282.9,81.4 282.9,74.2 261.5,74.2 261.5,63.8 284.9,63.8 
		284.9,56.4 253.4,56.4 253.4,100.7 286.4,100.7 	"/>
	<rect x="296.9" y="56.4" class="st1" width="8.1" height="44.3"/>
	<polygon class="st1" points="349.1,93.2 325.9,93.2 349.1,63.5 349.1,56.4 316.6,56.4 316.6,63.8 338.8,63.8 314.6,93.9 
		314.6,100.7 349.1,100.7 	"/>
	<polygon class="st1" points="393.1,93.2 368.2,93.2 368.2,81.4 389.6,81.4 389.6,74.2 368.2,74.2 368.2,63.8 391.5,63.8 
		391.5,56.4 360,56.4 360,100.7 393.1,100.7 	"/>
	<path class="st1" d="M427.6,82.6c7-2.3,8.7-7.9,8.7-12.2c0-8.3-5.9-14-14.6-14h-18.1v44.3h8.2V84.3h7.5l8.7,16.4h9.5L427.6,82.6z
		 M418.2,77.4h-6.4V63.6h7.5c5.3,0,8.6,2.1,8.6,6.8C428,75.6,424.2,77.4,418.2,77.4z"/>
	<rect x="448.3" y="56.4" class="st1" width="8.1" height="44.3"/>
	<path class="st1" d="M487.9,94.2c-8.1,0-11.8-3.8-13.7-6.7l-7,4.8c4,6.8,12,9.5,19.4,9.5c7.9,0,18.8-3.3,18.8-14.3
		c0-8.9-7.4-11.6-14.4-13.1l-4.6-1c-4.7-1-8.1-1.8-8.1-5.3c0-4.7,6.4-5.4,8.3-5.4c7,0,10.2,4.3,11.5,6.6l6.8-5.1
		c-6.1-8.3-13.9-9-17.9-9c-11.2,0-17.5,6-17.5,13.8c0,8.7,7,11,12.7,12.3l5.6,1.3c5.6,1.3,8.5,2.1,8.5,5.7
		C496.4,92.2,492.7,94.2,487.9,94.2z"/>
	<path class="st1" d="M532.2,101.8c12.7,0,17.7-9.7,19.1-13.5l-7.8-3.3c-1.3,4.5-5,8.9-10.7,8.9c-9.8,0-12.3-9.7-12.3-15.7
		c0-9.8,5.1-15.4,12.3-15.4c4.9,0,9,3.4,9.5,8.2l8.2-2.1c-1.9-6.3-6.6-13.7-18-13.7c-15.4,0-21,13-21,22.8
		C511.5,94.7,521.7,101.8,532.2,101.8z"/>
	<polygon class="st1" points="567.2,80.6 586.2,80.6 586.2,100.7 594.6,100.7 594.6,56.4 586.2,56.4 586.2,73.1 567.2,73.1 
		567.2,56.4 558.9,56.4 558.9,100.7 567.2,100.7 	"/>
	<polygon class="st1" points="641.8,93.2 616.9,93.2 616.9,81.4 638.3,81.4 638.3,74.2 616.9,74.2 616.9,63.8 640.2,63.8 
		640.2,56.4 608.7,56.4 608.7,100.7 641.8,100.7 	"/>
	<path class="st1" d="M81.9,143.4l-4.6-1c-4.7-1-8.1-1.8-8.1-5.3c0-4.7,6.4-5.4,8.3-5.4c7,0,10.2,4.3,11.5,6.6l6.8-5.1
		c-6.2-8.3-13.9-9-17.9-9c-11.2,0-17.5,6-17.5,13.8c0,8.6,7,11,12.7,12.3l5.6,1.3c5.6,1.3,8.5,2.1,8.5,5.7c0,3.8-3.7,5.8-8.5,5.8
		c-8.2,0-11.8-3.8-13.7-6.6l-7,4.8c4,6.8,12,9.5,19.4,9.5c7.9,0,18.8-3.3,18.8-14.3C96.3,147.6,88.9,144.9,81.9,143.4z"/>
	<polygon class="st1" points="134,125.4 101.4,125.4 101.4,132.9 113.5,132.9 113.5,169.7 121.8,169.7 121.8,132.9 134,132.9 	"/>
	<rect x="141.9" y="125.4" class="st1" width="8.1" height="44.3"/>
	<polygon class="st1" points="193.7,132.8 193.7,125.4 164.4,125.4 164.4,169.7 172.7,169.7 172.7,150.9 191.2,150.9 191.2,143.9 
		172.7,143.9 172.7,132.8 	"/>
	<polygon class="st1" points="219.2,169.7 219.2,132.9 231.4,132.9 231.4,125.4 198.9,125.4 198.9,132.9 210.9,132.9 210.9,169.7 	
		"/>
	<path class="st1" d="M239.3,125.4v26.3c0,4.7,0,6.8,0.7,9c2.3,7.3,9.8,10,16.9,10c10.9,0,15.9-5.7,17.4-10.2
		c0.7-2.2,0.8-4.1,0.8-7.8v-27.4h-8.3v26.8c0,2.9-0.1,4.1-0.6,5.6c-1.8,5-7.9,5-9,5c-5.9,0-8.3-2.6-9.1-5.3
		c-0.4-1.3-0.4-2.3-0.4-4.9v-27.2L239.3,125.4L239.3,125.4z"/>
	<path class="st1" d="M296.9,138.7l19.4,31h7.3v-44.3h-8.1c0.1,1,1,31.2,1,31.2l-19.6-31.2h-7.5v44.3h8.1
		C297.4,168.9,296.9,138.7,296.9,138.7z"/>
	<path class="st1" d="M333.1,148c0,15.1,10.2,22.8,20.8,22.8c5,0,8.6-1.6,12.2-4.9v3.8h7.1v-24.2h-18.6v7.3h11
		c-0.9,6.9-5.1,10.2-10.9,10.2c-12.1,0-12.5-13.4-12.5-15.2c0-9.8,4.9-16,12.4-16c7.7,0,10,6.6,10.8,8.7l7.9-3.1
		c-2.6-7-9.2-13-18.6-13C339.5,124.3,333.1,137.6,333.1,148z"/>
	<polygon class="st1" points="91,201.9 91,194.4 61.7,194.4 61.7,238.7 69.9,238.7 69.9,220 88.4,220 88.4,212.9 69.9,212.9 
		69.9,201.9 	"/>
	<rect x="120.4" y="182.6" class="st1" width="7.2" height="7.7"/>
	<path class="st1" d="M117.4,239.9c10.9,0,15.9-5.7,17.4-10.2c0.7-2.2,0.8-4.1,0.8-7.8v-27.4h-8.3v26.8c0,2.9-0.1,4.1-0.6,5.6
		c-1.8,5-7.9,5-9,5c-5.9,0-8.3-2.6-9.1-5.3c-0.4-1.3-0.4-2.3-0.4-4.9v-27.2h-8.3v26.3c0,4.7,0,6.8,0.7,9
		C102.8,237.1,110.3,239.9,117.4,239.9z"/>
	<rect x="107.8" y="182.6" class="st1" width="7" height="7.7"/>
	<path class="st1" d="M182.5,208.5c0-8.3-5.9-14.1-14.6-14.1h-18.1v44.3h8.2v-16.4h7.5l8.7,16.4h9.5l-9.9-18.1
		C180.8,218.3,182.5,212.8,182.5,208.5z M164.4,215.4H158v-13.8h7.5c5.3,0,8.6,2.1,8.6,6.8C174.1,213.6,170.4,215.4,164.4,215.4z"/>
	<polygon class="st1" points="228.1,238.7 228.1,201.9 240.4,201.9 240.4,194.4 207.8,194.4 207.8,201.9 219.8,201.9 219.8,238.7 	
		"/>
	<polygon class="st1" points="281.2,231.3 256.3,231.3 256.3,219.4 277.7,219.4 277.7,212.3 256.3,212.3 256.3,201.9 279.6,201.9 
		279.6,194.4 248.1,194.4 248.1,238.7 281.2,238.7 	"/>
	<path class="st1" d="M307.6,200.9c4.9,0,9,3.4,9.5,8.2l8.2-2.1c-1.9-6.3-6.6-13.7-18-13.7c-15.4,0-21,13-21,22.8
		c0,16.6,10.2,23.7,20.7,23.7c12.7,0,17.7-9.7,19.1-13.5l-7.8-3.3c-1.3,4.5-5,8.9-10.7,8.9c-9.9,0-12.3-9.7-12.3-15.7
		C295.3,206.4,300.4,200.9,307.6,200.9z"/>
	<polygon class="st1" points="333.7,194.4 333.7,238.7 342,238.7 342,218.6 361,218.6 361,238.7 369.4,238.7 369.4,194.4 361,194.4 
		361,211.1 342,211.1 342,194.4 	"/>
	<path class="st1" d="M391.3,207.7l19.4,31h7.3v-44.3h-8.1c0.1,1,1,31.2,1,31.2l-19.6-31.2h-7.5v44.3h8.1
		C391.8,237.9,391.3,207.7,391.3,207.7z"/>
	<rect x="432.2" y="194.4" class="st1" width="8.1" height="44.3"/>
	<path class="st1" d="M466.3,219.4l5.6,1.3c5.6,1.3,8.5,2.1,8.5,5.7c0,3.8-3.7,5.8-8.5,5.8c-8.1,0-11.8-3.8-13.7-6.6l-7,4.8
		c4,6.8,12,9.5,19.4,9.5c7.9,0,18.8-3.3,18.8-14.3c0-8.9-7.4-11.6-14.4-13.1l-4.6-1c-4.7-1-8.1-1.8-8.1-5.3c0-4.7,6.4-5.4,8.3-5.4
		c7,0,10.2,4.3,11.5,6.6l6.8-5.1c-6.1-8.3-13.9-9-17.9-9c-11.2,0-17.5,6-17.5,13.8C453.6,215.8,460.6,218.1,466.3,219.4z"/>
	<path class="st1" d="M516.8,200.9c4.9,0,9,3.4,9.5,8.2l8.2-2.1c-1.9-6.3-6.6-13.7-18-13.7c-15.4,0-21,13-21,22.8
		c0,16.6,10.2,23.7,20.7,23.7c12.7,0,17.7-9.7,19.1-13.5l-7.8-3.3c-1.3,4.5-5,8.9-10.7,8.9c-9.9,0-12.3-9.7-12.3-15.7
		C504.4,206.4,509.6,200.9,516.8,200.9z"/>
	<polygon class="st1" points="578.6,238.7 578.6,194.4 570.2,194.4 570.2,211.1 551.2,211.1 551.2,194.4 542.9,194.4 542.9,238.7 
		551.2,238.7 551.2,218.6 570.2,218.6 570.2,238.7 	"/>
	<polygon class="st1" points="600.8,219.4 622.2,219.4 622.2,212.3 600.8,212.3 600.8,201.9 624.2,201.9 624.2,194.4 592.7,194.4 
		592.7,238.7 625.7,238.7 625.7,231.3 600.8,231.3 	"/>
	<polygon class="st1" points="69.7,288.4 91.1,288.4 91.1,281.3 69.7,281.3 69.7,270.9 93,270.9 93,263.5 61.5,263.5 61.5,307.7 
		94.6,307.7 94.6,300.3 69.7,300.3 	"/>
	<path class="st1" d="M132.3,294.7l-19.6-31.2h-7.5v44.3h8.1c0-0.8-0.5-31-0.5-31l19.4,31h7.3v-44.3h-8.1
		C131.4,264.5,132.3,294.7,132.3,294.7z"/>
	<polygon class="st1" points="159.4,307.7 167.7,307.7 167.7,270.9 179.9,270.9 179.9,263.5 147.4,263.5 147.4,270.9 159.4,270.9 	
		"/>
	<polygon class="st1" points="221,297.2 214,263.5 206.3,263.5 199.4,297.2 193.4,263.5 184.9,263.5 194.1,307.7 203.8,307.7 
		210.2,276.9 216.4,307.7 226.1,307.7 235.8,263.5 227.2,263.5 	"/>
	<rect x="244.3" y="263.5" class="st1" width="8.1" height="44.3"/>
	<path class="st1" d="M301.3,295.4l-7.8-3.3c-1.3,4.5-5,8.9-10.7,8.9c-9.9,0-12.3-9.7-12.3-15.7c0-9.9,5.1-15.4,12.4-15.4
		c4.9,0,9,3.4,9.5,8.2l8.2-2.1c-1.9-6.3-6.6-13.7-18-13.7c-15.4,0-21,13-21,22.8c0,16.6,10.2,23.7,20.7,23.7
		C294.9,308.9,299.9,299.1,301.3,295.4z"/>
	<polygon class="st1" points="344.6,263.5 334.9,263.5 317.1,283.8 317.1,263.5 308.9,263.5 308.9,307.7 317.1,307.7 317.1,295.2 
		324.3,286.9 336.1,307.7 345.6,307.7 330.1,280.1 	"/>
	<polygon class="st1" points="379.6,300.2 362.1,300.2 362.1,263.5 353.7,263.5 353.7,307.7 379.6,307.7 	"/>
	<path class="st1" d="M404.2,308.9c10.9,0,15.9-5.7,17.4-10.2c0.7-2.2,0.8-4.1,0.8-7.8v-27.4H414v26.8c0,3-0.1,4.1-0.6,5.6
		c-1.8,5-7.9,5-9,5c-5.9,0-8.3-2.6-9.1-5.3c-0.4-1.3-0.4-2.3-0.4-4.9v-27.2h-8.3v26.3c0,4.7,0,6.8,0.7,9
		C389.6,306.1,397.1,308.9,404.2,308.9z"/>
	<path class="st1" d="M436.6,307.7h8.1c0-0.8-0.5-31-0.5-31l19.4,31h7.3v-44.3h-8.1c0.1,1,1,31.2,1,31.2l-19.6-31.2h-7.5V307.7z"/>
	<path class="st1" d="M501.7,269.8c7.7,0,10,6.6,10.8,8.7l7.9-3.1c-2.6-7-9.2-13-18.6-13c-15,0-21.5,13.3-21.5,23.7
		c0,15,10.2,22.8,20.8,22.8c5,0,8.6-1.6,12.2-4.9v3.8h7.2v-24.2h-18.6v7.3h11c-0.9,6.9-5.1,10.2-10.9,10.2
		c-12.1,0-12.5-13.4-12.5-15.2C489.4,276,494.2,269.8,501.7,269.8z"/>
	<path class="st1" d="M553.9,281.5l-4.6-1c-4.7-1-8.1-1.8-8.1-5.3c0-4.7,6.4-5.4,8.3-5.4c7,0,10.2,4.3,11.5,6.6l6.8-5.1
		c-6.2-8.3-13.9-9-17.9-9c-11.2,0-17.5,6-17.5,13.8c0,8.6,7,11,12.7,12.3l5.6,1.3c5.6,1.3,8.5,2.1,8.5,5.7c0,3.8-3.7,5.8-8.5,5.8
		c-8.2,0-11.8-3.8-13.7-6.6l-7,4.8c4,6.8,12,9.5,19.4,9.5c7.9,0,18.8-3.3,18.8-14.3C568.3,285.6,560.9,283,553.9,281.5z"/>
	<rect x="577.3" y="285.1" class="st1" width="18.1" height="7.1"/>
	<polygon class="st1" points="60.2,339.9 82.4,339.9 58.2,370 58.2,376.7 92.7,376.7 92.7,369.3 69.4,369.3 92.7,339.5 92.7,332.5 
		60.2,332.5 	"/>
	<path class="st1" d="M131.1,359.2c0,3-0.1,4.1-0.6,5.6c-1.8,5-7.9,5-9,5c-5.9,0-8.3-2.6-9.1-5.3c-0.4-1.3-0.4-2.3-0.4-4.9v-27.2
		h-8.3v26.3c0,4.7,0,6.8,0.7,9c2.3,7.3,9.8,10,16.9,10c10.8,0,15.9-5.7,17.4-10.2c0.7-2.2,0.8-4.1,0.8-7.8v-27.4h-8.3L131.1,359.2
		L131.1,359.2z"/>
	<path class="st1" d="M171.3,350.5l-4.6-1c-4.7-1-8.1-1.8-8.1-5.3c0-4.7,6.4-5.4,8.3-5.4c7,0,10.2,4.3,11.5,6.6l6.8-5.1
		c-6.1-8.3-13.9-9-17.9-9c-11.2,0-17.5,6-17.5,13.8c0,8.6,7,11,12.7,12.3l5.6,1.3c5.6,1.3,8.5,2.1,8.5,5.7c0,3.8-3.7,5.8-8.5,5.8
		c-8.1,0-11.8-3.8-13.7-6.6l-7,4.8c3.9,6.8,12,9.5,19.4,9.5c7.9,0,18.8-3.3,18.8-14.3C185.6,354.6,178.3,352,171.3,350.5z"/>
	<path class="st1" d="M204.8,332.5l-15,44.3h8.9l2.6-8.6h16.6l2.6,8.6h8.8l-15.1-44.3H204.8z M203.5,360.8l6.1-20.4l6.1,20.4H203.5z
		"/>
	<path class="st1" d="M256.9,365.3l-8.6-32.9h-12v44.3h8.1c0-1.4-0.8-36.4-0.8-36.4l9.6,36.4h7.5l9.6-36.4c0,0-0.8,35.3-0.8,36.4
		h8.1v-44.3h-12L256.9,365.3z"/>
	<path class="st1" d="M312.1,365.3l-8.6-32.9h-12v44.3h8.1c0-1.4-0.8-36.4-0.8-36.4l9.6,36.4h7.5l9.6-36.4c0,0-0.8,35.3-0.8,36.4
		h8.1v-44.3h-12L312.1,365.3z"/>
	<polygon class="st1" points="354.8,357.4 376.2,357.4 376.2,350.3 354.8,350.3 354.8,339.9 378.1,339.9 378.1,332.5 346.6,332.5 
		346.6,376.7 379.7,376.7 379.7,369.3 354.8,369.3 	"/>
	<path class="st1" d="M417.4,363.7l-19.6-31.2h-7.5v44.3h8.1c0-0.8-0.5-31-0.5-31l19.4,31h7.3v-44.3h-8.1
		C416.5,333.5,417.4,363.7,417.4,363.7z"/>
	<path class="st1" d="M446.5,332.5l-15,44.3h8.9l2.6-8.6h16.6l2.6,8.6h8.8l-15.1-44.3H446.5z M445.2,360.8l6.1-20.4l6.1,20.4H445.2z
		"/>
	<path class="st1" d="M511,346.5c0-8.3-5.9-14-14.6-14h-18.1v44.3h8.2v-16.4h7.5l8.7,16.4h9.5l-9.9-18.1
		C509.3,356.3,511,350.8,511,346.5z M492.9,353.4h-6.4v-13.8h7.5c5.3,0,8.6,2.1,8.6,6.8C502.6,351.6,498.8,353.4,492.9,353.4z"/>
	<path class="st1" d="M548.8,352.5c5.3-0.8,7.3-5.5,7.3-9.2c0-5.7-4.1-10.9-13.4-10.9h-19.8v44.3h20.4c11.4,0,14.9-6.5,14.9-12.5
		C558.2,356.5,552.9,353.2,548.8,352.5z M531.1,339.2h8.6c3.3,0,7.9,0.9,7.9,5.5c0,4.4-4.5,5.6-8.2,5.6h-8.3V339.2z M542,369.6
		h-10.9v-13.1h9.2c3.5,0,9.4,0.8,9.4,7C549.7,366.7,547.7,369.6,542,369.6z"/>
	<polygon class="st1" points="578.3,357.4 599.7,357.4 599.7,350.3 578.3,350.3 578.3,339.9 601.6,339.9 601.6,332.5 570.1,332.5 
		570.1,376.7 603.2,376.7 603.2,369.3 578.3,369.3 	"/>
	<rect x="613.7" y="332.5" class="st1" width="8.2" height="44.3"/>
	<polygon class="st1" points="629.9,332.5 629.9,339.9 642,339.9 642,376.7 650.3,376.7 650.3,339.9 662.5,339.9 662.5,332.5 	"/>
	<polygon class="st1" points="168.4,4.5 5.4,4.5 5.4,163.9 13.2,163.9 13.2,12.8 168.4,12.8 	"/>
</g>
<g>
	
		<image style="overflow:visible;opacity:0.15;" width="594" height="383" xlink:href="464A86F4.png"  transform="matrix(1 0 0 1 -11 -10.68)">
	</image>
	<g>
		<g>
			<g>
				<path class="st2" d="M88.1,69.3c-1.4-2.3-4.6-6.6-11.5-6.6c-1.9,0-8.3,0.7-8.3,5.4c0,3.4,3.4,4.3,8.1,5.3l4.6,1
					c7,1.5,14.4,4.2,14.4,13.1c0,11-10.9,14.3-18.8,14.3c-7.4,0-15.4-2.6-19.4-9.5l7-4.8c1.9,2.9,5.6,6.7,13.7,6.7
					c4.8,0,8.5-2,8.5-5.8c0-3.6-2.9-4.4-8.5-5.7l-5.6-1.3c-5.6-1.3-12.7-3.6-12.7-12.3c0-7.8,6.3-13.8,17.5-13.8
					c3.9,0,11.7,0.6,17.9,9L88.1,69.3z"/>
				<path class="st2" d="M141,100.6h-9.7l-6.2-30.8l-6.4,30.8h-9.7l-9.2-44.3h8.5l6,33.7l6.9-33.7h7.7l7,33.7l6.2-33.7h8.5
					L141,100.6z"/>
			</g>
			<g>
				<path class="st2" d="M159.2,100.6V56.3h8.1v44.3H159.2z"/>
				<path class="st2" d="M209.1,69.3c-1.4-2.3-4.6-6.6-11.5-6.6c-1.9,0-8.3,0.7-8.3,5.4c0,3.4,3.4,4.3,8.1,5.3l4.6,1
					c7,1.5,14.4,4.2,14.4,13.1c0,11-10.9,14.3-18.8,14.3c-7.4,0-15.4-2.6-19.4-9.5l7-4.8c1.9,2.9,5.6,6.7,13.7,6.7
					c4.8,0,8.5-2,8.5-5.8c0-3.6-2.9-4.4-8.5-5.7l-5.6-1.3c-5.6-1.3-12.7-3.6-12.7-12.3c0-7.8,6.3-13.8,17.5-13.8
					c3.9,0,11.7,0.6,17.9,9L209.1,69.3z"/>
			</g>
			<g>
				<path class="st2" d="M253.8,69.3c-1.4-2.3-4.6-6.6-11.5-6.6c-1.9,0-8.3,0.7-8.3,5.4c0,3.4,3.4,4.3,8.1,5.3l4.6,1
					c7,1.5,14.4,4.2,14.4,13.1c0,11-10.9,14.3-18.8,14.3c-7.4,0-15.4-2.6-19.4-9.5l7-4.8c1.9,2.9,5.6,6.7,13.7,6.7
					c4.8,0,8.5-2,8.5-5.8c0-3.6-2.9-4.4-8.5-5.7l-5.6-1.3c-5.6-1.3-12.7-3.6-12.7-12.3c0-7.8,6.3-13.8,17.5-13.8
					c3.9,0,11.7,0.6,17.9,9L253.8,69.3z"/>
			</g>
			<g>
				<path class="st2" d="M69,146.8v11h18.5v7.1H69v18.8h-8.2v-44.3h29.3v7.4L69,146.8L69,146.8z"/>
				<path class="st2" d="M116.8,138.3c13.5,0,21.2,11,21.2,23c0,10-5.5,23.5-21.4,23.5c-13,0-21.1-10.8-21.1-23.2
					C95.5,148.6,104,138.3,116.8,138.3z M116.9,177.1c6.6,0,12.8-5.1,12.8-15.1c0-7.9-4.1-16.1-12.9-16.1c-7.3,0-12.7,5.7-12.7,15.4
					C104.1,168.2,107.4,177.1,116.9,177.1z"/>
			</g>
			<g>
				<path class="st2" d="M183.2,166.8c0,3.8-0.1,5.6-0.8,7.8c-1.4,4.4-6.5,10.2-17.4,10.2c-7.1,0-14.6-2.8-16.9-10
					c-0.7-2.3-0.7-4.3-0.7-9v-26.3h8.3v27.2c0,2.6,0,3.6,0.4,4.9c0.8,2.6,3.2,5.3,9.1,5.3c1.1,0,7.1,0,9-5c0.5-1.4,0.6-2.6,0.6-5.6
					v-26.8h8.3V166.8z"/>
				<path class="st2" d="M224.5,183.7l-19.4-31c0,0,0.5,30.2,0.5,31h-8.1v-44.3h7.5l19.6,31.2c0,0-0.9-30.2-1-31.2h8.1v44.3H224.5z"
					/>
				<path class="st2" d="M262.7,139.4c10.5,0,20.3,6.6,20.3,22.5c0,14.2-7.7,21.8-20.8,21.8h-16.7v-44.3H262.7z M253.7,176.2h5.1
					c9.6,0,15.3-1.8,15.3-14.3c0-10.9-5.4-15.1-13.6-15.1h-6.8L253.7,176.2L253.7,176.2z"/>
			</g>
			<g>
				<path class="st2" d="M316.7,183.7l-2.6-8.6h-16.6l-2.6,8.6h-8.9l15-44.3h9.4l15.1,44.3H316.7z M305.9,147.4l-6.1,20.4H312
					L305.9,147.4z"/>
			</g>
			<g>
				<path class="st2" d="M344.3,146.9v36.8H336v-36.8h-12v-7.5h32.5v7.5H344.3z"/>
				<path class="st2" d="M364.5,183.7v-44.3h8.2v44.3H364.5z"/>
				<path class="st2" d="M403.6,138.3c13.5,0,21.2,11,21.2,23c0,10-5.5,23.5-21.4,23.5c-13,0-21.1-10.8-21.1-23.2
					C382.3,148.6,390.8,138.3,403.6,138.3z M403.6,177.1c6.6,0,12.8-5.1,12.8-15.1c0-7.9-4.1-16.1-12.9-16.1
					c-7.3,0-12.7,5.7-12.7,15.4C390.9,168.2,394.2,177.1,403.6,177.1z"/>
				<path class="st2" d="M461.4,183.7l-19.4-31c0,0,0.5,30.2,0.5,31h-8.1v-44.3h7.5l19.6,31.2c0,0-0.9-30.2-1-31.2h8.1v44.3H461.4z"
					/>
			</g>
			<g>
				<path class="st2" d="M69,229.8v11h18.5v7.1H69v18.8h-8.2v-44.3h29.3v7.4H69z"/>
				<path class="st2" d="M116.8,221.3c13.5,0,21.2,11,21.2,23c0,10-5.5,23.5-21.4,23.5c-13,0-21.1-10.8-21.1-23.2
					C95.5,231.6,104,221.3,116.8,221.3z M116.9,260.1c6.6,0,12.8-5.1,12.8-15.1c0-7.9-4.1-16.1-12.9-16.1c-7.3,0-12.7,5.7-12.7,15.4
					C104.1,251.2,107.4,260.1,116.9,260.1z"/>
				<path class="st2" d="M165.7,222.4c8.7,0,14.6,5.7,14.6,14.1c0,4.3-1.7,9.9-8.7,12.2l9.9,18.1h-9.5l-8.7-16.4h-7.5v16.4h-8.2
					v-44.3H165.7z M155.8,243.4h6.4c6,0,9.7-1.8,9.7-7c0-4.8-3.3-6.8-8.6-6.8h-7.5V243.4z"/>
				<path class="st2" d="M225.9,229.9v36.8h-8.3v-36.8h-12v-7.5h32.6v7.5H225.9z"/>
				<path class="st2" d="M245.9,266.7v-44.3h31.5v7.4H254v10.4h21.4v7.1H254v11.9h24.9v7.5L245.9,266.7L245.9,266.7z"/>
				<path class="st2" d="M323.9,254.3c-1.4,3.8-6.4,13.5-19.1,13.5c-10.5,0-20.7-7.1-20.7-23.7c0-9.9,5.6-22.8,21-22.8
					c11.4,0,16.1,7.3,18,13.7l-8.2,2.1c-0.5-4.8-4.6-8.2-9.5-8.2c-7.2,0-12.4,5.5-12.4,15.4c0,6,2.5,15.7,12.3,15.7
					c5.7,0,9.4-4.4,10.7-8.9L323.9,254.3z"/>
			</g>
			<g>
				<path class="st2" d="M358.8,266.7v-20.1h-19v20.1h-8.3v-44.3h8.3v16.7h19v-16.7h8.3v44.3H358.8z"/>
				<path class="st2" d="M408.5,266.7l-19.4-31c0,0,0.5,30.2,0.5,31h-8.1v-44.3h7.5l19.6,31.2c0,0-0.9-30.2-1-31.2h8.2v44.3H408.5z"
					/>
				<path class="st2" d="M430,266.7v-44.3h8.2v44.3H430z"/>
			</g>
			<g>
				<path class="st2" d="M487,254.3c-1.4,3.8-6.4,13.5-19.1,13.5c-10.5,0-20.7-7.1-20.7-23.7c0-9.9,5.6-22.8,21-22.8
					c11.4,0,16.1,7.3,18,13.7l-8.2,2.1c-0.5-4.8-4.6-8.2-9.5-8.2c-7.2,0-12.4,5.5-12.4,15.4c0,6,2.4,15.7,12.3,15.7
					c5.7,0,9.4-4.4,10.7-8.9L487,254.3z"/>
			</g>
			<g>
				<path class="st2" d="M519.3,266.7l-2.6-8.6h-16.6l-2.6,8.6h-8.9l15-44.3h9.4l15.1,44.3H519.3z M508.5,230.4l-6.1,20.4h12.2
					L508.5,230.4z"/>
				<path class="st2" d="M535.5,266.7v-44.3h8.3v36.8h17.6v7.5H535.5z"/>
			</g>
			<g>
				<path class="st2" d="M97.9,337.4c-1.4,3.8-6.4,13.5-19.1,13.5c-10.5,0-20.7-7.1-20.7-23.7c0-9.9,5.6-22.8,21-22.8
					c11.4,0,16.1,7.3,18,13.7l-8.2,2.1c-0.5-4.8-4.6-8.2-9.5-8.2c-7.2,0-12.4,5.5-12.4,15.4c0,6,2.4,15.7,12.3,15.7
					c5.7,0,9.4-4.4,10.7-8.9L97.9,337.4z"/>
				<path class="st2" d="M126,304.3c13.5,0,21.2,11,21.2,23c0,10-5.5,23.5-21.4,23.5c-13,0-21.1-10.8-21.1-23.2
					C104.8,314.7,113.2,304.3,126,304.3z M126.1,343.1c6.6,0,12.8-5.1,12.8-15.1c0-7.9-4.1-16.1-12.9-16.1
					c-7.3,0-12.7,5.7-12.7,15.4C113.3,334.2,116.6,343.1,126.1,343.1z"/>
				<path class="st2" d="M177.3,304.3c13.5,0,21.2,11,21.2,23c0,10-5.5,23.5-21.4,23.5c-13,0-21.1-10.8-21.1-23.2
					C156,314.7,164.5,304.3,177.3,304.3z M177.3,343.1c6.6,0,12.8-5.1,12.8-15.1c0-7.9-4.1-16.1-12.9-16.1
					c-7.3,0-12.7,5.7-12.7,15.4C164.5,334.2,167.9,343.1,177.3,343.1z"/>
			</g>
			<g>
				<path class="st2" d="M225.2,305.5c9.2,0,15.7,5.6,15.7,14.7c0,8-4.6,14.5-16.2,14.5h-8.5v15H208v-44.3L225.2,305.5L225.2,305.5z
					 M216.3,327.9h7.3c5.9,0,8.8-2.8,8.8-8c0-7.1-5.8-7.4-9.8-7.4h-6.3L216.3,327.9L216.3,327.9z"/>
				<path class="st2" d="M249.9,349.7v-44.3h31.5v7.4H258v10.4h21.4v7.1H258v11.9h24.9v7.5L249.9,349.7L249.9,349.7z"/>
			</g>
			<g>
				<path class="st2" d="M311.6,305.5c8.7,0,14.6,5.7,14.6,14c0,4.3-1.7,9.9-8.7,12.2l9.9,18.1h-9.5l-8.7-16.4h-7.5v16.4h-8.2v-44.3
					H311.6z M301.7,326.4h6.4c6,0,9.7-1.8,9.7-7c0-4.8-3.3-6.8-8.6-6.8h-7.5V326.4z"/>
				<path class="st2" d="M361.5,349.7l-2.6-8.6h-16.6l-2.6,8.6h-8.9l15-44.3h9.4l15.1,44.3H361.5z M350.7,313.4l-6.1,20.4h12.2
					L350.7,313.4z"/>
			</g>
			<g>
				<path class="st2" d="M389.1,312.9v36.8h-8.3v-36.8h-12v-7.5h32.5v7.5H389.1z"/>
				<path class="st2" d="M409.2,349.7v-44.3h8.2v44.3H409.2z"/>
				<path class="st2" d="M448.3,304.3c13.5,0,21.2,11,21.2,23c0,10-5.5,23.5-21.4,23.5c-13,0-21.1-10.8-21.1-23.2
					C427.1,314.7,435.5,304.3,448.3,304.3z M448.4,343.1c6.6,0,12.8-5.1,12.8-15.1c0-7.9-4.1-16.1-12.9-16.1
					c-7.3,0-12.7,5.7-12.7,15.4C435.6,334.2,438.9,343.1,448.4,343.1z"/>
				<path class="st2" d="M506.1,349.7l-19.4-31c0,0,0.5,30.2,0.5,31h-8.1v-44.3h7.5l19.6,31.2c0,0-0.9-30.2-1-31.2h8.1v44.3H506.1z"
					/>
			</g>
			<polygon class="st3" points="4.4,4.5 167.5,4.5 167.5,12.7 12.3,12.7 12.3,163.8 4.4,163.8 			"/>
		</g>
	</g>
</g>
</svg>
